<svg width="128" height="128" viewBox="0 0 128 128" fill="none" xmlns="http://www.w3.org/2000/svg">
<g style="mix-blend-mode:multiply">
<path d="M104 74C104 98.853 94 109 64 109C34 109 24 98.853 24 74C24 49.147 28 19 64 19C100 19 104 49.147 104 74Z" fill="#E33732"/>
<path d="M64 99C35.634 99 25.154 89.92 24.1 67.922C24.03 69.97 24 72 24 74C24 98.853 34 109 64 109C94 109 104 98.853 104 74C104 72 103.97 69.97 103.9 67.922C102.846 89.92 92.366 99 64 99Z" fill="#AF2E41"/>
<path d="M104 74C104 98.853 94 109 64 109C34 109 24 98.853 24 74C24 49.147 28 19 64 19C100 19 104 49.147 104 74Z" stroke="black" stroke-width="4" stroke-linecap="round" stroke-linejoin="round"/>
<path d="M59.3673 65.71L51.8543 46.8C51.3599 45.5618 50.444 44.5379 49.2683 43.909L42.4243 40.23C42.1943 40.105 41.941 40.0285 41.6801 40.0053C41.4193 39.9821 41.1565 40.0127 40.908 40.0952C40.6595 40.1777 40.4305 40.3103 40.2354 40.4849C40.0402 40.6594 39.8829 40.8722 39.7733 41.11C30.4523 62.082 31.4003 77.1 43.4193 83.773C43.7312 83.9406 44.0838 84.0177 44.4371 83.9956C44.7905 83.9735 45.1307 83.8531 45.4193 83.648C51.33 79.3941 56.1019 73.7499 59.3133 67.214C59.4266 66.9809 59.4899 66.7267 59.4992 66.4677C59.5085 66.2087 59.4636 65.9506 59.3673 65.71Z" fill="black" stroke="black" stroke-linecap="round" stroke-linejoin="round"/>
<path d="M53.5 66.5C53.5 67.5 48.5 68.5 44.5 68.5C42.5 68.5 41.5 67.5 41.5 66.5C41.5 64.843 43.186 63.5 46.5 63.5C49.814 63.5 53.5 65.5 53.5 66.5Z" fill="white" stroke="white" stroke-linecap="round" stroke-linejoin="round"/>
<path d="M41.1301 41.22L39.0801 26.51" stroke="black" stroke-width="2" stroke-linecap="round" stroke-linejoin="round"/>
<path d="M45.0405 81.98L42.2305 106.17" stroke="black" stroke-width="2" stroke-linecap="round" stroke-linejoin="round"/>
<path d="M68.6331 65.71L76.1461 46.8C76.6405 45.5617 77.5564 44.5378 78.7321 43.909L85.5761 40.232C85.8062 40.1069 86.0594 40.0304 86.3203 40.0072C86.5811 39.984 86.8439 40.0146 87.0924 40.0971C87.3409 40.1796 87.5699 40.3122 87.7651 40.4868C87.9602 40.6614 88.1175 40.8742 88.2271 41.112C97.5481 62.082 96.6001 77.1 84.5811 83.773C84.2692 83.9406 83.9167 84.0177 83.5633 83.9956C83.2099 83.9735 82.8697 83.8531 82.5811 83.648C76.6705 79.3941 71.8986 73.7499 68.6871 67.214C68.5738 66.9809 68.5105 66.7267 68.5012 66.4677C68.4919 66.2087 68.5368 65.9506 68.6331 65.71V65.71Z" fill="black" stroke="black" stroke-linecap="round" stroke-linejoin="round"/>
<path d="M74.5 66.5C74.5 67.5 79.5 68.5 83.5 68.5C85.5 68.5 86.5 67.5 86.5 66.5C86.5 64.843 84.814 63.5 81.5 63.5C78.186 63.5 74.5 65.5 74.5 66.5Z" fill="white" stroke="white" stroke-linecap="round" stroke-linejoin="round"/>
<path d="M88.9201 26.51L86.8701 41.22" stroke="black" stroke-width="2" stroke-linecap="round" stroke-linejoin="round"/>
<path d="M85.77 106.17L82.96 81.98" stroke="black" stroke-width="2" stroke-linecap="round" stroke-linejoin="round"/>
</g>
</svg>
